<?xml version="1.0" encoding="UTF-8" standalone="no"?>
<!DOCTYPE svg PUBLIC "-//W3C//DTD SVG 1.1//EN"
 "http://www.w3.org/Graphics/SVG/1.1/DTD/svg11.dtd">
<!-- Generated by graphviz version 2.38.0 (20140413.2041)
 -->
<!-- Title: G Pages: 1 -->
<svg width="688pt" height="577pt"
 viewBox="0.00 0.00 688.00 577.00" xmlns="http://www.w3.org/2000/svg" xmlns:xlink="http://www.w3.org/1999/xlink">
<g id="graph0" class="graph" transform="scale(1 1) rotate(0) translate(4 573)">
<title>G</title>
<polygon fill="white" stroke="none" points="-4,4 -4,-573 684,-573 684,4 -4,4"/>
<g id="clust1" class="cluster"><title>cluster_root</title>
<g id="a_clust1"><a xlink:title="eventq_index&#61;0&#10;full_system&#61;false&#10;sim_quantum&#61;0&#10;time_sync_enable&#61;false&#10;time_sync_period&#61;100000000000&#10;time_sync_spin_threshold&#61;100000000">
<path fill="#bab6ae" stroke="#000000" d="M20,-8C20,-8 660,-8 660,-8 666,-8 672,-14 672,-20 672,-20 672,-549 672,-549 672,-555 666,-561 660,-561 660,-561 20,-561 20,-561 14,-561 8,-555 8,-549 8,-549 8,-20 8,-20 8,-14 14,-8 20,-8"/>
<text text-anchor="middle" x="340" y="-545.8" font-family="Arial" font-size="14.00" fill="#000000">root </text>
<text text-anchor="middle" x="340" y="-530.8" font-family="Arial" font-size="14.00" fill="#000000">: Root</text>
</a>
</g>
</g>
<g id="clust2" class="cluster"><title>cluster_system</title>
<g id="a_clust2"><a xlink:title="boot_osflags&#61;a&#10;cache_line_size&#61;64&#10;clk_domain&#61;system.clk_domain&#10;eventq_index&#61;0&#10;init_param&#61;0&#10;kernel&#61;&#10;kernel_addr_check&#61;true&#10;load_addr_mask&#61;1099511627775&#10;load_offset&#61;0&#10;mem_mode&#61;timing&#10;mem_ranges&#61;0:536870911&#10;memories&#61;system.mem_ctrls&#10;mmap_using_noreserve&#61;false&#10;num_work_ids&#61;16&#10;readfile&#61;&#10;symbolfile&#61;&#10;work_begin_ckpt_count&#61;0&#10;work_begin_cpu_id_exit&#61;&#45;1&#10;work_begin_exit_count&#61;0&#10;work_cpus_ckpt_count&#61;0&#10;work_end_ckpt_count&#61;0&#10;work_end_exit_count&#61;0&#10;work_item_id&#61;&#45;1">
<path fill="#e4e7eb" stroke="#000000" d="M28,-16C28,-16 652,-16 652,-16 658,-16 664,-22 664,-28 664,-28 664,-503 664,-503 664,-509 658,-515 652,-515 652,-515 28,-515 28,-515 22,-515 16,-509 16,-503 16,-503 16,-28 16,-28 16,-22 22,-16 28,-16"/>
<text text-anchor="middle" x="340" y="-499.8" font-family="Arial" font-size="14.00" fill="#000000">system </text>
<text text-anchor="middle" x="340" y="-484.8" font-family="Arial" font-size="14.00" fill="#000000">: System</text>
</a>
</g>
</g>
<g id="clust3" class="cluster"><title>cluster_system_membus</title>
<g id="a_clust3"><a xlink:title="clk_domain&#61;system.clk_domain&#10;eventq_index&#61;0&#10;forward_latency&#61;4&#10;frontend_latency&#61;3&#10;response_latency&#61;2&#10;snoop_filter&#61;Null&#10;snoop_response_latency&#61;4&#10;system&#61;system&#10;use_default_range&#61;false&#10;width&#61;16">
<path fill="#6f798c" stroke="#000000" d="M275,-155C275,-155 399,-155 399,-155 405,-155 411,-161 411,-167 411,-167 411,-234 411,-234 411,-240 405,-246 399,-246 399,-246 275,-246 275,-246 269,-246 263,-240 263,-234 263,-234 263,-167 263,-167 263,-161 269,-155 275,-155"/>
<text text-anchor="middle" x="337" y="-230.8" font-family="Arial" font-size="14.00" fill="#000000">membus </text>
<text text-anchor="middle" x="337" y="-215.8" font-family="Arial" font-size="14.00" fill="#000000">: SystemXBar</text>
</a>
</g>
</g>
<g id="clust7" class="cluster"><title>cluster_system_mem_ctrls</title>
<g id="a_clust7"><a xlink:title="IDD0&#61;0.075000&#10;IDD02&#61;0.000000&#10;IDD2N&#61;0.050000&#10;IDD2N2&#61;0.000000&#10;IDD2P0&#61;0.000000&#10;IDD2P02&#61;0.000000&#10;IDD2P1&#61;0.000000&#10;IDD2P12&#61;0.000000&#10;IDD3N&#61;0.057000&#10;IDD3N2&#61;0.000000&#10;IDD3P0&#61;0.000000&#10;IDD3P02&#61;0.000000&#10;IDD3P1&#61;0.000000&#10;IDD3P12&#61;0.000000&#10;IDD4R&#61;0.187000&#10;IDD4R2&#61;0.000000&#10;IDD4W&#61;0.165000&#10;IDD4W2&#61;0.000000&#10;IDD5&#61;0.220000&#10;IDD52&#61;0.000000&#10;IDD6&#61;0.000000&#10;IDD62&#61;0.000000&#10;VDD&#61;1.500000&#10;VDD2&#61;0.000000&#10;activation_limit&#61;4&#10;addr_mapping&#61;RoRaBaCoCh&#10;bank_groups_per_rank&#61;0&#10;banks_per_rank&#61;8&#10;burst_length&#61;8&#10;channels&#61;1&#10;clk_domain&#61;system.clk_domain&#10;conf_table_reported&#61;true&#10;device_bus_width&#61;8&#10;device_rowbuffer_size&#61;1024&#10;device_size&#61;536870912&#10;devices_per_rank&#61;8&#10;dll&#61;true&#10;eventq_index&#61;0&#10;in_addr_map&#61;true&#10;max_accesses_per_row&#61;16&#10;mem_sched_policy&#61;frfcfs&#10;min_writes_per_switch&#61;16&#10;null&#61;false&#10;page_policy&#61;open_adaptive&#10;range&#61;0:536870911&#10;ranks_per_channel&#61;2&#10;read_buffer_size&#61;32&#10;static_backend_latency&#61;10000&#10;static_frontend_latency&#61;10000&#10;tBURST&#61;5000&#10;tCCD_L&#61;0&#10;tCK&#61;1250&#10;tCL&#61;13750&#10;tCS&#61;2500&#10;tRAS&#61;35000&#10;tRCD&#61;13750&#10;tREFI&#61;7800000&#10;tRFC&#61;260000&#10;tRP&#61;13750&#10;tRRD&#61;6000&#10;tRRD_L&#61;0&#10;tRTP&#61;7500&#10;tRTW&#61;2500&#10;tWR&#61;15000&#10;tWTR&#61;7500&#10;tXAW&#61;30000&#10;tXP&#61;0&#10;tXPDLL&#61;0&#10;tXS&#61;0&#10;tXSDLL&#61;0&#10;write_buffer_size&#61;64&#10;write_high_thresh_perc&#61;85&#10;write_low_thresh_perc&#61;50">
<path fill="#5e5958" stroke="#000000" d="M317,-24C317,-24 430,-24 430,-24 436,-24 442,-30 442,-36 442,-36 442,-103 442,-103 442,-109 436,-115 430,-115 430,-115 317,-115 317,-115 311,-115 305,-109 305,-103 305,-103 305,-36 305,-36 305,-30 311,-24 317,-24"/>
<text text-anchor="middle" x="373.5" y="-99.8" font-family="Arial" font-size="14.00" fill="#000000">mem_ctrls </text>
<text text-anchor="middle" x="373.5" y="-84.8" font-family="Arial" font-size="14.00" fill="#000000">: DDR3_1600_x64</text>
</a>
</g>
</g>
<g id="clust10" class="cluster"><title>cluster_system_cpu</title>
<g id="a_clust10"><a xlink:title="branchPred&#61;Null&#10;checker&#61;Null&#10;clk_domain&#61;system.cpu_clk_domain&#10;cpu_id&#61;0&#10;do_checkpoint_insts&#61;true&#10;do_quiesce&#61;true&#10;do_statistics_insts&#61;true&#10;dstage2_mmu&#61;system.cpu.dstage2_mmu&#10;dtb&#61;system.cpu.dtb&#10;eventq_index&#61;0&#10;function_trace&#61;false&#10;function_trace_start&#61;0&#10;interrupts&#61;system.cpu.interrupts&#10;isa&#61;system.cpu.isa&#10;istage2_mmu&#61;system.cpu.istage2_mmu&#10;itb&#61;system.cpu.itb&#10;max_insts_all_threads&#61;0&#10;max_insts_any_thread&#61;0&#10;max_loads_all_threads&#61;0&#10;max_loads_any_thread&#61;0&#10;numThreads&#61;1&#10;profile&#61;0&#10;progress_interval&#61;0&#10;simpoint_start_insts&#61;&#10;socket_id&#61;0&#10;switched_out&#61;false&#10;system&#61;system&#10;tracer&#61;system.cpu.tracer&#10;workload&#61;system.cpu.workload">
<path fill="#bbc6d9" stroke="#000000" d="M142,-270C142,-270 644,-270 644,-270 650,-270 656,-276 656,-282 656,-282 656,-457 656,-457 656,-463 650,-469 644,-469 644,-469 142,-469 142,-469 136,-469 130,-463 130,-457 130,-457 130,-282 130,-282 130,-276 136,-270 142,-270"/>
<text text-anchor="middle" x="393" y="-453.8" font-family="Arial" font-size="14.00" fill="#000000">cpu </text>
<text text-anchor="middle" x="393" y="-438.8" font-family="Arial" font-size="14.00" fill="#000000">: TimingSimpleCPU</text>
</a>
</g>
</g>
<g id="clust12" class="cluster"><title>cluster_system_cpu_dtb</title>
<g id="a_clust12"><a xlink:title="eventq_index&#61;0&#10;is_stage2&#61;false&#10;size&#61;64&#10;walker&#61;system.cpu.dtb.walker">
<path fill="#bab6ae" stroke="#000000" d="M516,-278C516,-278 636,-278 636,-278 642,-278 648,-284 648,-290 648,-290 648,-411 648,-411 648,-417 642,-423 636,-423 636,-423 516,-423 516,-423 510,-423 504,-417 504,-411 504,-411 504,-290 504,-290 504,-284 510,-278 516,-278"/>
<text text-anchor="middle" x="576" y="-407.8" font-family="Arial" font-size="14.00" fill="#000000">dtb </text>
<text text-anchor="middle" x="576" y="-392.8" font-family="Arial" font-size="14.00" fill="#000000">: ArmTLB</text>
</a>
</g>
</g>
<g id="clust13" class="cluster"><title>cluster_system_cpu_dtb_walker</title>
<g id="a_clust13"><a xlink:title="clk_domain&#61;system.cpu_clk_domain&#10;eventq_index&#61;0&#10;is_stage2&#61;false&#10;num_squash_per_cycle&#61;2&#10;sys&#61;system">
<path fill="#9f9c95" stroke="#000000" d="M524,-286C524,-286 628,-286 628,-286 634,-286 640,-292 640,-298 640,-298 640,-365 640,-365 640,-371 634,-377 628,-377 628,-377 524,-377 524,-377 518,-377 512,-371 512,-365 512,-365 512,-298 512,-298 512,-292 518,-286 524,-286"/>
<text text-anchor="middle" x="576" y="-361.8" font-family="Arial" font-size="14.00" fill="#000000">walker </text>
<text text-anchor="middle" x="576" y="-346.8" font-family="Arial" font-size="14.00" fill="#000000">: ArmTableWalker</text>
</a>
</g>
</g>
<g id="clust15" class="cluster"><title>cluster_system_cpu_itb</title>
<g id="a_clust15"><a xlink:title="eventq_index&#61;0&#10;is_stage2&#61;false&#10;size&#61;64&#10;walker&#61;system.cpu.itb.walker">
<path fill="#bab6ae" stroke="#000000" d="M364,-278C364,-278 484,-278 484,-278 490,-278 496,-284 496,-290 496,-290 496,-411 496,-411 496,-417 490,-423 484,-423 484,-423 364,-423 364,-423 358,-423 352,-417 352,-411 352,-411 352,-290 352,-290 352,-284 358,-278 364,-278"/>
<text text-anchor="middle" x="424" y="-407.8" font-family="Arial" font-size="14.00" fill="#000000">itb </text>
<text text-anchor="middle" x="424" y="-392.8" font-family="Arial" font-size="14.00" fill="#000000">: ArmTLB</text>
</a>
</g>
</g>
<g id="clust16" class="cluster"><title>cluster_system_cpu_itb_walker</title>
<g id="a_clust16"><a xlink:title="clk_domain&#61;system.cpu_clk_domain&#10;eventq_index&#61;0&#10;is_stage2&#61;false&#10;num_squash_per_cycle&#61;2&#10;sys&#61;system">
<path fill="#9f9c95" stroke="#000000" d="M372,-286C372,-286 476,-286 476,-286 482,-286 488,-292 488,-298 488,-298 488,-365 488,-365 488,-371 482,-377 476,-377 476,-377 372,-377 372,-377 366,-377 360,-371 360,-365 360,-365 360,-298 360,-298 360,-292 366,-286 372,-286"/>
<text text-anchor="middle" x="424" y="-361.8" font-family="Arial" font-size="14.00" fill="#000000">walker </text>
<text text-anchor="middle" x="424" y="-346.8" font-family="Arial" font-size="14.00" fill="#000000">: ArmTableWalker</text>
</a>
</g>
</g>
<!-- system_system_port -->
<g id="node1" class="node"><title>system_system_port</title>
<path fill="#b6b8bc" stroke="#000000" d="M36.5,-294.5C36.5,-294.5 107.5,-294.5 107.5,-294.5 113.5,-294.5 119.5,-300.5 119.5,-306.5 119.5,-306.5 119.5,-318.5 119.5,-318.5 119.5,-324.5 113.5,-330.5 107.5,-330.5 107.5,-330.5 36.5,-330.5 36.5,-330.5 30.5,-330.5 24.5,-324.5 24.5,-318.5 24.5,-318.5 24.5,-306.5 24.5,-306.5 24.5,-300.5 30.5,-294.5 36.5,-294.5"/>
<text text-anchor="middle" x="72" y="-308.8" font-family="Arial" font-size="14.00" fill="#000000">system_port</text>
</g>
<!-- system_membus_slave -->
<g id="node3" class="node"><title>system_membus_slave</title>
<path fill="#586070" stroke="#000000" d="M283,-163.5C283,-163.5 313,-163.5 313,-163.5 319,-163.5 325,-169.5 325,-175.5 325,-175.5 325,-187.5 325,-187.5 325,-193.5 319,-199.5 313,-199.5 313,-199.5 283,-199.5 283,-199.5 277,-199.5 271,-193.5 271,-187.5 271,-187.5 271,-175.5 271,-175.5 271,-169.5 277,-163.5 283,-163.5"/>
<text text-anchor="middle" x="298" y="-177.8" font-family="Arial" font-size="14.00" fill="#000000">slave</text>
</g>
<!-- system_system_port&#45;&gt;system_membus_slave -->
<g id="edge1" class="edge"><title>system_system_port&#45;&gt;system_membus_slave</title>
<path fill="none" stroke="black" d="M92.3788,-294.408C102.226,-286.527 114.401,-277.319 126,-270 170.804,-241.727 225.885,-214.996 261.452,-198.69"/>
<polygon fill="black" stroke="black" points="263.287,-201.701 270.941,-194.375 260.389,-195.329 263.287,-201.701"/>
</g>
<!-- system_membus_master -->
<g id="node2" class="node"><title>system_membus_master</title>
<path fill="#586070" stroke="#000000" d="M355,-163.5C355,-163.5 391,-163.5 391,-163.5 397,-163.5 403,-169.5 403,-175.5 403,-175.5 403,-187.5 403,-187.5 403,-193.5 397,-199.5 391,-199.5 391,-199.5 355,-199.5 355,-199.5 349,-199.5 343,-193.5 343,-187.5 343,-187.5 343,-175.5 343,-175.5 343,-169.5 349,-163.5 355,-163.5"/>
<text text-anchor="middle" x="373" y="-177.8" font-family="Arial" font-size="14.00" fill="#000000">master</text>
</g>
<!-- system_mem_ctrls_port -->
<g id="node4" class="node"><title>system_mem_ctrls_port</title>
<path fill="#4b4746" stroke="#000000" d="M358,-32.5C358,-32.5 388,-32.5 388,-32.5 394,-32.5 400,-38.5 400,-44.5 400,-44.5 400,-56.5 400,-56.5 400,-62.5 394,-68.5 388,-68.5 388,-68.5 358,-68.5 358,-68.5 352,-68.5 346,-62.5 346,-56.5 346,-56.5 346,-44.5 346,-44.5 346,-38.5 352,-32.5 358,-32.5"/>
<text text-anchor="middle" x="373" y="-46.8" font-family="Arial" font-size="14.00" fill="#000000">port</text>
</g>
<!-- system_membus_master&#45;&gt;system_mem_ctrls_port -->
<g id="edge2" class="edge"><title>system_membus_master&#45;&gt;system_mem_ctrls_port</title>
<path fill="none" stroke="black" d="M373,-163.37C373,-141.781 373,-104.412 373,-78.852"/>
<polygon fill="black" stroke="black" points="376.5,-78.701 373,-68.7011 369.5,-78.7011 376.5,-78.701"/>
</g>
<!-- system_cpu_icache_port -->
<g id="node5" class="node"><title>system_cpu_icache_port</title>
<path fill="#959ead" stroke="#000000" d="M264.5,-294.5C264.5,-294.5 331.5,-294.5 331.5,-294.5 337.5,-294.5 343.5,-300.5 343.5,-306.5 343.5,-306.5 343.5,-318.5 343.5,-318.5 343.5,-324.5 337.5,-330.5 331.5,-330.5 331.5,-330.5 264.5,-330.5 264.5,-330.5 258.5,-330.5 252.5,-324.5 252.5,-318.5 252.5,-318.5 252.5,-306.5 252.5,-306.5 252.5,-300.5 258.5,-294.5 264.5,-294.5"/>
<text text-anchor="middle" x="298" y="-308.8" font-family="Arial" font-size="14.00" fill="#000000">icache_port</text>
</g>
<!-- system_cpu_icache_port&#45;&gt;system_membus_slave -->
<g id="edge3" class="edge"><title>system_cpu_icache_port&#45;&gt;system_membus_slave</title>
<path fill="none" stroke="black" d="M298,-294.37C298,-272.781 298,-235.412 298,-209.852"/>
<polygon fill="black" stroke="black" points="301.5,-209.701 298,-199.701 294.5,-209.701 301.5,-209.701"/>
</g>
<!-- system_cpu_dcache_port -->
<g id="node6" class="node"><title>system_cpu_dcache_port</title>
<path fill="#959ead" stroke="#000000" d="M150,-294.5C150,-294.5 222,-294.5 222,-294.5 228,-294.5 234,-300.5 234,-306.5 234,-306.5 234,-318.5 234,-318.5 234,-324.5 228,-330.5 222,-330.5 222,-330.5 150,-330.5 150,-330.5 144,-330.5 138,-324.5 138,-318.5 138,-318.5 138,-306.5 138,-306.5 138,-300.5 144,-294.5 150,-294.5"/>
<text text-anchor="middle" x="186" y="-308.8" font-family="Arial" font-size="14.00" fill="#000000">dcache_port</text>
</g>
<!-- system_cpu_dcache_port&#45;&gt;system_membus_slave -->
<g id="edge4" class="edge"><title>system_cpu_dcache_port&#45;&gt;system_membus_slave</title>
<path fill="none" stroke="black" d="M200.873,-294.37C220.202,-272.106 254.102,-233.061 276.302,-207.491"/>
<polygon fill="black" stroke="black" points="279.153,-209.547 283.066,-199.701 273.867,-204.958 279.153,-209.547"/>
</g>
<!-- system_cpu_dtb_walker_port -->
<g id="node7" class="node"><title>system_cpu_dtb_walker_port</title>
<path fill="#7f7c77" stroke="#000000" d="M532,-294.5C532,-294.5 562,-294.5 562,-294.5 568,-294.5 574,-300.5 574,-306.5 574,-306.5 574,-318.5 574,-318.5 574,-324.5 568,-330.5 562,-330.5 562,-330.5 532,-330.5 532,-330.5 526,-330.5 520,-324.5 520,-318.5 520,-318.5 520,-306.5 520,-306.5 520,-300.5 526,-294.5 532,-294.5"/>
<text text-anchor="middle" x="547" y="-308.8" font-family="Arial" font-size="14.00" fill="#000000">port</text>
</g>
<!-- system_cpu_dtb_walker_port&#45;&gt;system_membus_slave -->
<g id="edge5" class="edge"><title>system_cpu_dtb_walker_port&#45;&gt;system_membus_slave</title>
<path fill="none" stroke="black" d="M529.115,-294.369C519.001,-285.673 505.67,-275.757 492,-270 426.54,-242.434 392.505,-286.275 334,-246 321.273,-237.239 312.503,-222.42 306.808,-209.3"/>
<polygon fill="black" stroke="black" points="309.959,-207.749 303.038,-199.727 303.446,-210.314 309.959,-207.749"/>
</g>
<!-- system_cpu_itb_walker_port -->
<g id="node8" class="node"><title>system_cpu_itb_walker_port</title>
<path fill="#7f7c77" stroke="#000000" d="M380,-294.5C380,-294.5 410,-294.5 410,-294.5 416,-294.5 422,-300.5 422,-306.5 422,-306.5 422,-318.5 422,-318.5 422,-324.5 416,-330.5 410,-330.5 410,-330.5 380,-330.5 380,-330.5 374,-330.5 368,-324.5 368,-318.5 368,-318.5 368,-306.5 368,-306.5 368,-300.5 374,-294.5 380,-294.5"/>
<text text-anchor="middle" x="395" y="-308.8" font-family="Arial" font-size="14.00" fill="#000000">port</text>
</g>
<!-- system_cpu_itb_walker_port&#45;&gt;system_membus_slave -->
<g id="edge6" class="edge"><title>system_cpu_itb_walker_port&#45;&gt;system_membus_slave</title>
<path fill="none" stroke="black" d="M383.547,-294.161C378.055,-286.404 371.128,-277.369 364,-270 352.128,-257.728 345.077,-258.995 334,-246 324.464,-234.813 316.179,-220.728 309.969,-208.667"/>
<polygon fill="black" stroke="black" points="313.018,-206.936 305.449,-199.522 306.742,-210.038 313.018,-206.936"/>
</g>
</g>
</svg>
